<svg width="28" height="32" viewBox="0 0 28 32" fill="none" xmlns="http://www.w3.org/2000/svg">
<g clip-path="url(#clip0_3_131)">
<path d="M13.9882 8.81251C10.0183 8.81251 6.81621 12.0188 6.81621 15.9938C6.81621 19.9688 10.0183 23.175 13.9882 23.175C17.9581 23.175 21.1602 19.9688 21.1602 15.9938C21.1602 12.0188 17.9581 8.81251 13.9882 8.81251ZM13.9882 20.6625C11.4228 20.6625 9.32548 18.5688 9.32548 15.9938C9.32548 13.4188 11.4165 11.325 13.9882 11.325C16.5599 11.325 18.651 13.4188 18.651 15.9938C18.651 18.5688 16.5537 20.6625 13.9882 20.6625ZM23.1264 8.51876C23.1264 9.45001 22.3774 10.1938 21.4536 10.1938C20.5235 10.1938 19.7808 9.44376 19.7808 8.51876C19.7808 7.59376 20.5298 6.84376 21.4536 6.84376C22.3774 6.84376 23.1264 7.59376 23.1264 8.51876ZM27.8766 10.2188C27.7705 7.97501 27.2586 5.98751 25.617 4.35001C23.9816 2.71251 21.9966 2.20001 19.7558 2.08751C17.4463 1.95626 10.5239 1.95626 8.21441 2.08751C5.97979 2.19376 3.99485 2.70626 2.35321 4.34376C0.71158 5.98126 0.205982 7.96876 0.0936264 10.2125C-0.0374547 12.525 -0.0374547 19.4563 0.0936264 21.7688C0.19974 24.0125 0.71158 26 2.35321 27.6375C3.99485 29.275 5.97355 29.7875 8.21441 29.9C10.5239 30.0313 17.4463 30.0313 19.7558 29.9C21.9966 29.7938 23.9816 29.2813 25.617 27.6375C27.2524 26 27.7642 24.0125 27.8766 21.7688C28.0077 19.4563 28.0077 12.5313 27.8766 10.2188ZM24.8929 24.25C24.406 25.475 23.4635 26.4188 22.2338 26.9125C20.3925 27.6438 16.0231 27.475 13.9882 27.475C11.9533 27.475 7.57773 27.6375 5.7426 26.9125C4.51917 26.425 3.57664 25.4813 3.08352 24.25C2.35321 22.4063 2.52175 18.0313 2.52175 15.9938C2.52175 13.9563 2.35946 9.57501 3.08352 7.73751C3.5704 6.51251 4.51293 5.56876 5.7426 5.07501C7.58397 4.34376 11.9533 4.51251 13.9882 4.51251C16.0231 4.51251 20.3987 4.35001 22.2338 5.07501C23.4573 5.56251 24.3998 6.50626 24.8929 7.73751C25.6232 9.58126 25.4547 13.9563 25.4547 15.9938C25.4547 18.0313 25.6232 22.4125 24.8929 24.25Z" fill="#CE0CFF"/>
</g>
<defs>
<clipPath id="clip0_3_131">
<rect width="27.964" height="32" fill="white"/>
</clipPath>
</defs>
</svg>
