<svg width="40" height="40" viewBox="0 0 40 40" fill="none" xmlns="http://www.w3.org/2000/svg">
<g clip-path="url(#clip0_3_8)">
<path d="M19.9666 13.6895V4.00668C19.9666 2.33723 21.3022 1.00167 22.9716 1.00167C24.6411 1.00167 25.9766 2.33723 25.9766 4.00668V5.67613C25.9766 7.14524 27.1786 8.34725 28.6478 8.34725C30.1169 8.34725 31.3189 7.14524 31.3189 5.67613V0.333893" stroke="#839594" stroke-width="2" stroke-miterlimit="10"/>
<path d="M8.81466 27.0451C5.94321 27.0451 3.40564 25.5092 2.00331 23.1719L1.13519 35.0584C1.13519 37.596 3.20531 39.7329 5.80965 39.7329C7.87977 39.7329 9.68277 38.3973 10.2838 36.394L14.0233 25.1085C12.5542 26.3105 10.7512 27.0451 8.81466 27.0451Z" fill="#F3F3F3"/>
<path d="M31.3189 27.0451C34.1903 27.0451 36.7279 25.5092 38.1302 23.1719L38.9315 35.0584C38.9315 37.596 36.8614 39.7329 34.2571 39.7329C32.187 39.7329 30.384 38.3973 29.783 36.394L26.0434 25.1085C27.5125 26.3105 29.3155 27.0451 31.3189 27.0451Z" fill="#F3F3F3"/>
<path d="M20.0334 28.3806C19.9666 28.1803 19.9666 27.9132 19.9666 27.7128C19.9666 27.9132 19.9666 28.1803 19.8998 28.3806H20.0334Z" fill="#38454F"/>
<path d="M26.5108 26.3105L26.1102 25.1753C26.177 25.2421 26.2437 25.2421 26.3105 25.3088C24.5075 23.8397 23.3055 21.636 23.3055 19.0985C23.3055 16.6945 24.3739 14.5576 26.0434 13.0885H14.1569C15.8264 14.5576 16.8948 16.6945 16.8948 19.0985C16.8948 21.5025 15.8264 23.6394 14.1569 25.1085C14.2237 25.1753 14.2905 25.3088 14.2905 25.3756C14.8915 24.7746 15.6928 24.3739 16.6277 24.3739C18.4307 24.3739 19.8998 25.8431 19.9666 27.5793C20.0334 25.7763 21.5025 24.3739 23.3055 24.3739C24.6411 24.3739 25.8431 25.1753 26.3773 26.3773C26.4441 26.3105 26.4441 26.3105 26.5108 26.3105Z" fill="#F3F3F3"/>
<path d="M8.68114 27.7129C13.4756 27.7129 17.3623 23.8262 17.3623 19.0317C17.3623 14.2373 13.4756 10.3506 8.68114 10.3506C3.88668 10.3506 0 14.2373 0 19.0317C0 23.8262 3.88668 27.7129 8.68114 27.7129Z" fill="#F4F4F4"/>
<path d="M31.3857 27.7129C36.1801 27.7129 40.0668 23.8262 40.0668 19.0317C40.0668 14.2373 36.1801 10.3506 31.3857 10.3506C26.5912 10.3506 22.7045 14.2373 22.7045 19.0317C22.7045 23.8262 26.5912 27.7129 31.3857 27.7129Z" fill="#F4F4F4"/>
<path d="M16.6277 31.0518C18.4717 31.0518 19.9666 29.5569 19.9666 27.7129C19.9666 25.8688 18.4717 24.374 16.6277 24.374C14.7837 24.374 13.2888 25.8688 13.2888 27.7129C13.2888 29.5569 14.7837 31.0518 16.6277 31.0518Z" fill="#283238"/>
<path d="M23.3055 31.0518C25.1495 31.0518 26.6444 29.5569 26.6444 27.7129C26.6444 25.8688 25.1495 24.374 23.3055 24.374C21.4615 24.374 19.9666 25.8688 19.9666 27.7129C19.9666 29.5569 21.4615 31.0518 23.3055 31.0518Z" fill="#283238"/>
<path d="M19.2988 16.3606H20.6344" stroke="#AFB6BB" stroke-width="2" stroke-miterlimit="10" stroke-linecap="round"/>
<path d="M35.6594 20.3673C36.5815 20.3673 37.3289 19.6198 37.3289 18.6978C37.3289 17.7758 36.5815 17.0284 35.6594 17.0284C34.7374 17.0284 33.99 17.7758 33.99 18.6978C33.99 19.6198 34.7374 20.3673 35.6594 20.3673Z" stroke="#DD352E" stroke-width="2" stroke-miterlimit="10"/>
<path d="M26.9783 20.3673C27.9003 20.3673 28.6477 19.6198 28.6477 18.6978C28.6477 17.7758 27.9003 17.0284 26.9783 17.0284C26.0563 17.0284 25.3088 17.7758 25.3088 18.6978C25.3088 19.6198 26.0563 20.3673 26.9783 20.3673Z" stroke="#BF4D90" stroke-width="2" stroke-miterlimit="10"/>
<path d="M12.1536 17.6962H9.9499V15.4925C9.9499 15.2254 9.74957 15.0251 9.48246 15.0251H7.74623C7.47912 15.0251 7.27878 15.2254 7.27878 15.4925V17.6962H5.07511C4.808 17.6962 4.60767 17.8965 4.60767 18.1636V19.8998C4.60767 20.167 4.808 20.3673 5.07511 20.3673H7.27878V22.571C7.27878 22.8381 7.47912 23.0384 7.74623 23.0384H9.48246C9.74957 23.0384 9.9499 22.8381 9.9499 22.571V20.3673H12.1536C12.4207 20.3673 12.621 20.167 12.621 19.8998V18.1636C12.621 17.8965 12.4207 17.6962 12.1536 17.6962Z" fill="#283238" stroke="#38454F" stroke-width="2" stroke-miterlimit="10" stroke-linecap="round"/>
<path d="M31.3189 24.0401C32.2409 24.0401 32.9883 23.2926 32.9883 22.3706C32.9883 21.4486 32.2409 20.7012 31.3189 20.7012C30.3969 20.7012 29.6494 21.4486 29.6494 22.3706C29.6494 23.2926 30.3969 24.0401 31.3189 24.0401Z" stroke="#5D7BDB" stroke-width="2" stroke-miterlimit="10"/>
<path d="M31.3189 16.6945C32.2409 16.6945 32.9883 15.9471 32.9883 15.025C32.9883 14.103 32.2409 13.3556 31.3189 13.3556C30.3969 13.3556 29.6494 14.103 29.6494 15.025C29.6494 15.9471 30.3969 16.6945 31.3189 16.6945Z" stroke="#20BEE2" stroke-width="2" stroke-miterlimit="10"/>
</g>
<defs>
<clipPath id="clip0_3_8">
<rect width="40" height="40" fill="white"/>
</clipPath>
</defs>
</svg>
