<svg width="27" height="27" viewBox="0 0 27 27" fill="none" xmlns="http://www.w3.org/2000/svg">
<path d="M0.964286 4.95918H26.0357C26.5683 4.95918 27 4.46581 27 3.85714V1.10204C27 0.49337 26.5683 0 26.0357 0H0.964286C0.431699 0 0 0.49337 0 1.10204V3.85714C0 4.46581 0.431699 4.95918 0.964286 4.95918ZM0.964286 15.9796H26.0357C26.5683 15.9796 27 15.4862 27 14.8776V12.1224C27 11.5138 26.5683 11.0204 26.0357 11.0204H0.964286C0.431699 11.0204 0 11.5138 0 12.1224V14.8776C0 15.4862 0.431699 15.9796 0.964286 15.9796ZM0.964286 27H26.0357C26.5683 27 27 26.5066 27 25.898V23.1429C27 22.5342 26.5683 22.0408 26.0357 22.0408H0.964286C0.431699 22.0408 0 22.5342 0 23.1429V25.898C0 26.5066 0.431699 27 0.964286 27Z" fill="#F3F3F3"/>
</svg>
