<svg width="25" height="24" viewBox="0 0 25 24" fill="none" xmlns="http://www.w3.org/2000/svg">
<path d="M22.9219 14.1243L24.9737 4.37433C25.1218 3.67036 24.6263 3 23.9579 3H6.91007L6.51224 0.899531C6.41311 0.375984 5.98655 0 5.49171 0H1.04167C0.466363 0 0 0.503672 0 1.125V1.875C0 2.49633 0.466363 3 1.04167 3H4.07478L7.12374 19.0985C6.39431 19.5516 5.90278 20.401 5.90278 21.375C5.90278 22.8248 6.99097 24 8.33333 24C9.67569 24 10.7639 22.8248 10.7639 21.375C10.7639 20.6403 10.4841 19.9765 10.0337 19.5H19.1329C18.6826 19.9765 18.4028 20.6403 18.4028 21.375C18.4028 22.8248 19.491 24 20.8333 24C22.1757 24 23.2639 22.8248 23.2639 21.375C23.2639 20.3357 22.7045 19.4376 21.8933 19.0123L22.1327 17.8743C22.2809 17.1704 21.7854 16.5 21.117 16.5H9.46688L9.18281 15H21.9061C22.3925 15 22.8141 14.6365 22.9219 14.1243Z" fill="#D01418"/>
</svg>
